<svg xmlns="http://www.w3.org/2000/svg" xmlns:xlink="http://www.w3.org/1999/xlink" width="1920" zoomAndPan="magnify" viewBox="0 0 1440 809.999993" height="1080" preserveAspectRatio="xMidYMid meet" version="1.0"><defs><clipPath id="4ddf743bfb"><path d="M 503.453125 513 L 936.203125 513 L 936.203125 705.742188 L 503.453125 705.742188 Z M 503.453125 513 " clip-rule="nonzero"/></clipPath><clipPath id="f0c45750bd"><path d="M 527 104.242188 L 913 104.242188 L 913 490 L 527 490 Z M 527 104.242188 " clip-rule="nonzero"/></clipPath></defs><path fill="#ffffff" d="M 685.296875 656.699219 C 691.457031 659.28125 698.476562 656.351562 701.027344 650.226562 L 702.957031 645.597656 L 737.042969 645.597656 C 737.042969 645.597656 738.960938 650.203125 738.972656 650.226562 C 741.472656 656.222656 748.769531 659.171875 754.703125 656.699219 C 760.835938 654.144531 763.730469 647.101562 761.175781 640.96875 L 731.101562 568.789062 C 729.234375 564.304688 724.855469 561.386719 720 561.386719 C 715.140625 561.386719 710.765625 564.304688 708.898438 568.789062 L 678.824219 640.96875 C 676.265625 647.101562 679.164062 654.144531 685.296875 656.699219 Z M 727.015625 621.535156 L 712.980469 621.535156 L 720 604.695312 Z M 727.015625 621.535156 " fill-opacity="1" fill-rule="nonzero"/><path fill="#ffffff" d="M 804.207031 645.597656 L 804.207031 627.550781 L 813.230469 627.550781 C 831.476562 627.550781 846.3125 612.714844 846.3125 594.46875 C 846.3125 576.226562 831.476562 561.386719 813.230469 561.386719 L 792.179688 561.386719 C 785.535156 561.386719 780.148438 566.773438 780.148438 573.417969 L 780.148438 645.597656 C 780.148438 652.242188 785.535156 657.625 792.179688 657.625 C 798.824219 657.625 804.207031 652.242188 804.207031 645.597656 Z M 804.207031 585.445312 L 813.230469 585.445312 C 818.207031 585.445312 822.253906 589.496094 822.253906 594.46875 C 822.253906 599.445312 818.207031 603.492188 813.230469 603.492188 L 804.207031 603.492188 Z M 804.207031 585.445312 " fill-opacity="1" fill-rule="nonzero"/><path fill="#ffffff" d="M 622.554688 585.445312 L 647.820312 585.445312 C 654.464844 585.445312 659.851562 580.0625 659.851562 573.417969 C 659.851562 566.773438 654.464844 561.386719 647.820312 561.386719 L 622.554688 561.386719 C 606.636719 561.386719 593.683594 574.339844 593.683594 590.257812 C 593.683594 602.597656 601.527344 613.570312 613.1875 617.566406 L 632.542969 624.203125 C 634.484375 624.875 635.789062 626.699219 635.789062 628.757812 C 635.789062 631.410156 633.632812 633.566406 630.980469 633.566406 L 605.714844 633.566406 C 599.070312 633.566406 593.683594 638.953125 593.683594 645.597656 C 593.683594 652.242188 599.070312 657.625 605.714844 657.625 L 630.980469 657.625 C 646.898438 657.625 659.851562 644.675781 659.851562 628.757812 C 659.851562 616.414062 652.007812 605.441406 640.347656 601.449219 L 620.992188 594.808594 C 619.050781 594.140625 617.746094 592.3125 617.746094 590.257812 C 617.746094 587.601562 619.902344 585.445312 622.554688 585.445312 Z M 622.554688 585.445312 " fill-opacity="1" fill-rule="nonzero"/><g clip-path="url(#4ddf743bfb)"><path fill="#ffffff" d="M 900.449219 513.265625 L 768.117188 513.265625 C 761.476562 513.265625 756.089844 518.652344 756.089844 525.296875 C 756.089844 531.941406 761.476562 537.328125 768.117188 537.328125 L 900.449219 537.328125 C 907.078125 537.328125 912.476562 542.726562 912.476562 549.355469 L 912.476562 669.65625 C 912.476562 676.289062 907.078125 681.6875 900.449219 681.6875 L 539.550781 681.6875 C 532.917969 681.6875 527.519531 676.289062 527.519531 669.65625 L 527.519531 549.355469 C 527.519531 542.726562 532.917969 537.328125 539.550781 537.328125 L 671.878906 537.328125 C 678.523438 537.328125 683.910156 531.941406 683.910156 525.296875 C 683.910156 518.652344 678.523438 513.265625 671.878906 513.265625 L 539.550781 513.265625 C 519.648438 513.265625 503.460938 529.457031 503.460938 549.355469 L 503.460938 669.65625 C 503.460938 689.558594 519.648438 705.746094 539.550781 705.746094 L 900.449219 705.746094 C 920.347656 705.746094 936.539062 689.558594 936.539062 669.65625 L 936.539062 549.355469 C 936.539062 529.457031 920.347656 513.265625 900.449219 513.265625 Z M 900.449219 513.265625 " fill-opacity="1" fill-rule="nonzero"/></g><g clip-path="url(#f0c45750bd)"><path fill="#ffffff" d="M 538.851562 340.320312 C 551.5 341.054688 561.941406 348.484375 566.792969 360.183594 C 571.640625 371.890625 569.507812 384.53125 561.085938 394.003906 C 556.847656 398.761719 557.0625 405.996094 561.566406 410.503906 L 606.226562 455.160156 C 610.75 459.671875 617.972656 459.867188 622.726562 455.644531 C 632.1875 447.226562 644.816406 445.105469 656.542969 449.933594 C 668.242188 454.785156 675.675781 465.230469 676.410156 477.875 C 676.785156 484.238281 682.046875 489.207031 688.421875 489.207031 L 751.578125 489.207031 C 757.953125 489.207031 763.214844 484.238281 763.589844 477.875 C 764.324219 465.230469 771.753906 454.785156 783.457031 449.933594 C 795.175781 445.105469 807.808594 447.226562 817.273438 455.644531 C 822.023438 459.867188 829.265625 459.671875 833.773438 455.160156 L 878.433594 410.503906 C 882.9375 405.996094 883.148438 398.761719 878.914062 394.003906 C 870.492188 384.53125 868.359375 371.890625 873.203125 360.183594 C 878.058594 348.484375 888.5 341.054688 901.148438 340.320312 C 907.507812 339.945312 912.476562 334.679688 912.476562 328.308594 L 912.476562 265.148438 C 912.476562 258.777344 907.507812 253.515625 901.148438 253.136719 C 888.5 252.402344 878.058594 244.972656 873.203125 233.273438 C 868.359375 221.566406 870.492188 208.925781 878.914062 199.457031 C 883.148438 194.699219 882.9375 187.460938 878.433594 182.957031 L 833.773438 138.296875 C 829.265625 133.789062 822.023438 133.585938 817.273438 137.8125 C 807.808594 146.230469 795.175781 148.363281 783.457031 143.523438 C 771.753906 138.671875 764.324219 128.226562 763.589844 115.582031 C 763.214844 109.21875 757.953125 104.25 751.578125 104.25 L 688.421875 104.25 C 682.046875 104.25 676.785156 109.21875 676.410156 115.582031 C 675.675781 128.226562 668.242188 138.671875 656.542969 143.523438 C 644.816406 148.363281 632.1875 146.230469 622.726562 137.8125 C 617.972656 133.585938 610.726562 133.789062 606.226562 138.296875 L 561.566406 182.957031 C 557.0625 187.460938 556.847656 194.699219 561.085938 199.457031 C 569.507812 208.925781 571.640625 221.566406 566.792969 233.273438 C 561.941406 244.972656 551.5 252.402344 538.851562 253.136719 C 532.488281 253.515625 527.519531 258.777344 527.519531 265.148438 L 527.519531 328.308594 C 527.519531 334.679688 532.488281 339.945312 538.851562 340.320312 Z M 551.582031 275.351562 C 568.351562 270.917969 582.171875 259.007812 589.019531 242.476562 C 595.863281 225.945312 594.519531 207.742188 585.796875 192.753906 L 616.023438 162.527344 C 631.019531 171.242188 649.21875 172.59375 665.746094 165.75 C 682.277344 158.902344 694.1875 145.078125 698.625 128.308594 L 741.375 128.308594 C 745.808594 145.078125 757.722656 158.902344 774.25 165.75 C 790.773438 172.582031 808.984375 171.25 823.976562 162.527344 L 854.203125 192.753906 C 845.480469 207.742188 844.132812 225.945312 850.976562 242.476562 C 857.828125 259.007812 871.648438 270.917969 888.417969 275.351562 L 888.417969 318.105469 C 871.648438 322.539062 857.828125 334.453125 850.976562 350.980469 C 844.132812 367.511719 845.480469 385.714844 854.203125 400.703125 L 823.976562 430.933594 C 808.992188 422.21875 790.796875 420.863281 774.25 427.707031 C 757.722656 434.554688 745.808594 448.378906 741.375 465.148438 L 698.625 465.148438 C 694.1875 448.378906 682.277344 434.554688 665.746094 427.707031 C 649.222656 420.863281 631.019531 422.203125 616.023438 430.933594 L 585.796875 400.703125 C 594.519531 385.714844 595.863281 367.511719 589.019531 350.980469 C 582.171875 334.453125 568.351562 322.539062 551.582031 318.105469 Z M 551.582031 275.351562 " fill-opacity="1" fill-rule="nonzero"/></g><path fill="#ffffff" d="M 720 417.027344 C 786.335938 417.027344 840.296875 363.0625 840.296875 296.730469 C 840.296875 230.394531 786.335938 176.429688 720 176.429688 C 653.664062 176.429688 599.699219 230.394531 599.699219 296.730469 C 599.699219 363.0625 653.664062 417.027344 720 417.027344 Z M 720 200.488281 C 773.066406 200.488281 816.238281 243.664062 816.238281 296.730469 C 816.238281 349.792969 773.066406 392.96875 720 392.96875 C 666.933594 392.96875 623.761719 349.792969 623.761719 296.730469 C 623.761719 243.664062 666.933594 200.488281 720 200.488281 Z M 720 200.488281 " fill-opacity="1" fill-rule="nonzero"/><path fill="#ffffff" d="M 720 368.910156 C 759.800781 368.910156 792.179688 336.53125 792.179688 296.730469 C 792.179688 256.925781 759.800781 224.550781 720 224.550781 C 680.195312 224.550781 647.820312 256.925781 647.820312 296.730469 C 647.820312 336.53125 680.195312 368.910156 720 368.910156 Z M 720 248.609375 C 746.53125 248.609375 768.117188 270.195312 768.117188 296.730469 C 768.117188 323.261719 746.53125 344.847656 720 344.847656 C 693.464844 344.847656 671.878906 323.261719 671.878906 296.730469 C 671.878906 270.195312 693.464844 248.609375 720 248.609375 Z M 720 248.609375 " fill-opacity="1" fill-rule="nonzero"/><path fill="#ffffff" d="M 888.09375 433.226562 C 883.90625 438.386719 884.695312 445.964844 889.851562 450.152344 C 889.851562 450.152344 908.53125 465.316406 908.53125 465.316406 C 913.644531 469.464844 921.300781 468.667969 925.453125 463.5625 C 929.640625 458.40625 928.855469 450.828125 923.699219 446.640625 L 905.019531 431.472656 C 899.859375 427.300781 892.296875 428.082031 888.09375 433.226562 Z M 888.09375 433.226562 " fill-opacity="1" fill-rule="nonzero"/><path fill="#ffffff" d="M 858.226562 463.410156 C 853.117188 467.648438 852.410156 475.234375 856.652344 480.351562 C 856.652344 480.351562 868.171875 494.234375 868.171875 494.234375 C 872.378906 499.304688 880.058594 499.992188 885.113281 495.808594 C 890.222656 491.570312 890.925781 483.984375 886.683594 478.871094 L 875.167969 464.984375 C 870.929688 459.871094 863.347656 459.1875 858.226562 463.410156 Z M 858.226562 463.410156 " fill-opacity="1" fill-rule="nonzero"/><path fill="#ffffff" d="M 551.902344 433.226562 C 547.722656 428.082031 540.148438 427.289062 534.980469 431.472656 L 516.300781 446.640625 C 511.144531 450.828125 510.355469 458.402344 514.542969 463.5625 C 518.496094 468.429688 526.300781 469.503906 531.46875 465.316406 L 550.148438 450.152344 C 555.304688 445.964844 556.089844 438.386719 551.902344 433.226562 Z M 551.902344 433.226562 " fill-opacity="1" fill-rule="nonzero"/><path fill="#ffffff" d="M 564.832031 464.984375 L 553.3125 478.871094 C 549.074219 483.984375 549.777344 491.566406 554.886719 495.808594 C 559.707031 499.8125 567.570312 499.367188 571.828125 494.234375 L 583.347656 480.351562 C 587.585938 475.234375 586.882812 467.648438 581.773438 463.410156 C 576.65625 459.1875 569.085938 459.871094 564.832031 464.984375 Z M 564.832031 464.984375 " fill-opacity="1" fill-rule="nonzero"/><path fill="#ffffff" d="M 732.027344 525.296875 C 732.027344 526.085938 731.953125 526.871094 731.796875 527.644531 C 731.644531 528.417969 731.414062 529.171875 731.113281 529.902344 C 730.8125 530.628906 730.441406 531.324219 730 531.980469 C 729.5625 532.636719 729.0625 533.246094 728.503906 533.804688 C 727.945312 534.363281 727.339844 534.859375 726.683594 535.300781 C 726.027344 535.738281 725.332031 536.109375 724.601562 536.410156 C 723.875 536.714844 723.121094 536.941406 722.347656 537.097656 C 721.570312 537.25 720.789062 537.328125 720 537.328125 C 719.210938 537.328125 718.425781 537.25 717.652344 537.097656 C 716.878906 536.941406 716.125 536.714844 715.394531 536.410156 C 714.664062 536.109375 713.972656 535.738281 713.316406 535.300781 C 712.660156 534.859375 712.050781 534.363281 711.492188 533.804688 C 710.933594 533.246094 710.4375 532.636719 709.996094 531.980469 C 709.558594 531.324219 709.1875 530.628906 708.886719 529.902344 C 708.582031 529.171875 708.355469 528.417969 708.199219 527.644531 C 708.046875 526.871094 707.96875 526.085938 707.96875 525.296875 C 707.96875 524.507812 708.046875 523.726562 708.199219 522.949219 C 708.355469 522.175781 708.582031 521.421875 708.886719 520.695312 C 709.1875 519.964844 709.558594 519.269531 709.996094 518.613281 C 710.4375 517.957031 710.933594 517.347656 711.492188 516.789062 C 712.050781 516.230469 712.660156 515.734375 713.316406 515.292969 C 713.972656 514.855469 714.664062 514.484375 715.394531 514.183594 C 716.125 513.882812 716.878906 513.652344 717.652344 513.5 C 718.425781 513.34375 719.210938 513.265625 720 513.265625 C 720.789062 513.265625 721.570312 513.34375 722.347656 513.5 C 723.121094 513.652344 723.875 513.882812 724.601562 514.183594 C 725.332031 514.484375 726.027344 514.855469 726.683594 515.292969 C 727.339844 515.734375 727.945312 516.230469 728.503906 516.789062 C 729.0625 517.347656 729.5625 517.957031 730 518.613281 C 730.441406 519.269531 730.8125 519.964844 731.113281 520.695312 C 731.414062 521.421875 731.644531 522.175781 731.796875 522.949219 C 731.953125 523.726562 732.027344 524.507812 732.027344 525.296875 Z M 732.027344 525.296875 " fill-opacity="1" fill-rule="nonzero"/></svg>